<?xml version="1.0" encoding="UTF-8" standalone="no"?>
<!-- Created with Inkscape (http://www.inkscape.org/) -->

<svg
   version="1.1"
   id="svg2"
   width="593.79041"
   height="557.44818"
   viewBox="0 0 593.79041 557.44818"
   xmlns="http://www.w3.org/2000/svg"
   xmlns:svg="http://www.w3.org/2000/svg">
  <defs
     id="defs6">
    <clipPath
       clipPathUnits="userSpaceOnUse"
       id="clipPath20">
      <path
         d="M 62.121875,125.10225 H 419.24187 v 266.112 H 62.121875 Z"
         id="path18" />
    </clipPath>
    <clipPath
       clipPathUnits="userSpaceOnUse"
       id="clipPath38">
      <path
         d="M 62.121875,125.10225 H 419.24187 v 266.112 H 62.121875 Z"
         id="path36" />
    </clipPath>
    <clipPath
       clipPathUnits="userSpaceOnUse"
       id="clipPath56">
      <path
         d="M 62.121875,125.10225 H 419.24187 v 266.112 H 62.121875 Z"
         id="path54" />
    </clipPath>
    <clipPath
       clipPathUnits="userSpaceOnUse"
       id="clipPath74">
      <path
         d="M 62.121875,125.10225 H 419.24187 v 266.112 H 62.121875 Z"
         id="path72" />
    </clipPath>
    <clipPath
       clipPathUnits="userSpaceOnUse"
       id="clipPath92">
      <path
         d="M 62.121875,125.10225 H 419.24187 v 266.112 H 62.121875 Z"
         id="path90" />
    </clipPath>
    <clipPath
       clipPathUnits="userSpaceOnUse"
       id="clipPath116">
      <path
         d="M 62.121875,125.10225 H 419.24187 v 266.112 H 62.121875 Z"
         id="path114" />
    </clipPath>
    <clipPath
       clipPathUnits="userSpaceOnUse"
       id="clipPath134">
      <path
         d="M 62.121875,125.10225 H 419.24187 v 266.112 H 62.121875 Z"
         id="path132" />
    </clipPath>
    <clipPath
       clipPathUnits="userSpaceOnUse"
       id="clipPath152">
      <path
         d="M 62.121875,125.10225 H 419.24187 v 266.112 H 62.121875 Z"
         id="path150" />
    </clipPath>
    <clipPath
       clipPathUnits="userSpaceOnUse"
       id="clipPath170">
      <path
         d="M 62.121875,125.10225 H 419.24187 v 266.112 H 62.121875 Z"
         id="path168" />
    </clipPath>
    <clipPath
       clipPathUnits="userSpaceOnUse"
       id="clipPath188">
      <path
         d="M 62.121875,125.10225 H 419.24187 v 266.112 H 62.121875 Z"
         id="path186" />
    </clipPath>
    <clipPath
       clipPathUnits="userSpaceOnUse"
       id="clipPath212">
      <path
         d="M 62.121875,125.10225 H 419.24187 v 266.112 H 62.121875 Z"
         id="path210" />
    </clipPath>
    <clipPath
       clipPathUnits="userSpaceOnUse"
       id="clipPath224">
      <path
         d="M -11,-11 H 11 V 11 H -11 Z"
         id="path222" />
    </clipPath>
    <clipPath
       clipPathUnits="userSpaceOnUse"
       id="clipPath236">
      <path
         d="M -11,-11 H 11 V 11 H -11 Z"
         id="path234" />
    </clipPath>
    <clipPath
       clipPathUnits="userSpaceOnUse"
       id="clipPath248">
      <path
         d="M -11,-11 H 11 V 11 H -11 Z"
         id="path246" />
    </clipPath>
    <clipPath
       clipPathUnits="userSpaceOnUse"
       id="clipPath260">
      <path
         d="M -11,-11 H 11 V 11 H -11 Z"
         id="path258" />
    </clipPath>
    <clipPath
       clipPathUnits="userSpaceOnUse"
       id="clipPath272">
      <path
         d="M -11,-11 H 11 V 11 H -11 Z"
         id="path270" />
    </clipPath>
    <clipPath
       clipPathUnits="userSpaceOnUse"
       id="clipPath284">
      <path
         d="M -11,-11 H 11 V 11 H -11 Z"
         id="path282" />
    </clipPath>
    <clipPath
       clipPathUnits="userSpaceOnUse"
       id="clipPath296">
      <path
         d="M -11,-11 H 11 V 11 H -11 Z"
         id="path294" />
    </clipPath>
    <clipPath
       clipPathUnits="userSpaceOnUse"
       id="clipPath308">
      <path
         d="M -11,-11 H 11 V 11 H -11 Z"
         id="path306" />
    </clipPath>
    <clipPath
       clipPathUnits="userSpaceOnUse"
       id="clipPath320">
      <path
         d="M -11,-11 H 11 V 11 H -11 Z"
         id="path318" />
    </clipPath>
    <clipPath
       clipPathUnits="userSpaceOnUse"
       id="clipPath332">
      <path
         d="M -11,-11 H 11 V 11 H -11 Z"
         id="path330" />
    </clipPath>
    <clipPath
       clipPathUnits="userSpaceOnUse"
       id="clipPath344">
      <path
         d="M -11,-11 H 11 V 11 H -11 Z"
         id="path342" />
    </clipPath>
    <clipPath
       clipPathUnits="userSpaceOnUse"
       id="clipPath356">
      <path
         d="M -11,-11 H 11 V 11 H -11 Z"
         id="path354" />
    </clipPath>
    <clipPath
       clipPathUnits="userSpaceOnUse"
       id="clipPath368">
      <path
         d="M -11,-11 H 11 V 11 H -11 Z"
         id="path366" />
    </clipPath>
    <clipPath
       clipPathUnits="userSpaceOnUse"
       id="clipPath380">
      <path
         d="M -11,-11 H 11 V 11 H -11 Z"
         id="path378" />
    </clipPath>
    <clipPath
       clipPathUnits="userSpaceOnUse"
       id="clipPath392">
      <path
         d="M -11,-11 H 11 V 11 H -11 Z"
         id="path390" />
    </clipPath>
    <clipPath
       clipPathUnits="userSpaceOnUse"
       id="clipPath404">
      <path
         d="M -11,-11 H 11 V 11 H -11 Z"
         id="path402" />
    </clipPath>
    <clipPath
       clipPathUnits="userSpaceOnUse"
       id="clipPath416">
      <path
         d="M -11,-11 H 11 V 11 H -11 Z"
         id="path414" />
    </clipPath>
    <clipPath
       clipPathUnits="userSpaceOnUse"
       id="clipPath428">
      <path
         d="M -11,-11 H 11 V 11 H -11 Z"
         id="path426" />
    </clipPath>
    <clipPath
       clipPathUnits="userSpaceOnUse"
       id="clipPath440">
      <path
         d="M -11,-11 H 11 V 11 H -11 Z"
         id="path438" />
    </clipPath>
    <clipPath
       clipPathUnits="userSpaceOnUse"
       id="clipPath452">
      <path
         d="M -11,-11 H 11 V 11 H -11 Z"
         id="path450" />
    </clipPath>
    <clipPath
       clipPathUnits="userSpaceOnUse"
       id="clipPath462">
      <path
         d="M 62.121875,125.10225 H 419.24187 v 266.112 H 62.121875 Z"
         id="path460" />
    </clipPath>
  </defs>
  <g
     id="g8"
     transform="matrix(1.3333333,0,0,-1.3333333,0,557.44817)">
    <path
       d="M 0,0 H 445.34281 V 418.08612 H 0 Z"
       style="fill:#ffffff;fill-opacity:1;fill-rule:nonzero;stroke:none"
       id="path10" />
    <path
       d="M 62.121875,125.10225 H 419.24187 v 266.112 H 62.121875 Z"
       style="fill:#eaeaf2;fill-opacity:1;fill-rule:nonzero;stroke:none"
       id="path12" />
    <g
       id="g14">
      <g
         id="g16"
         clip-path="url(#clipPath20)">
        <path
           d="m 78.354602,125.10225 v 266.112"
           style="fill:none;stroke:#ffffff;stroke-width:1.5;stroke-linecap:round;stroke-linejoin:round;stroke-miterlimit:10;stroke-dasharray:none;stroke-opacity:1"
           id="path22" />
      </g>
    </g>
    <g
       id="g24">
      <g
         id="g26"
         transform="translate(65.573352,99.680375)">
        <text
           xml:space="preserve"
           transform="scale(1,-1)"
           style="font-variant:normal;font-weight:normal;font-size:16.5px;font-family:'DejaVu Sans';-inkscape-font-specification:DejaVuSans;writing-mode:lr-tb;fill:#262626;fill-opacity:1;fill-rule:nonzero;stroke:none"
           id="text30"><tspan
             x="0 10.494 19.0905"
             y="0"
             id="tspan28">1st</tspan></text>
      </g>
    </g>
    <g
       id="g32">
      <g
         id="g34"
         clip-path="url(#clipPath38)">
        <path
           d="m 146.70293,125.10225 v 266.112"
           style="fill:none;stroke:#ffffff;stroke-width:1.5;stroke-linecap:round;stroke-linejoin:round;stroke-miterlimit:10;stroke-dasharray:none;stroke-opacity:1"
           id="path40" />
      </g>
    </g>
    <g
       id="g42">
      <g
         id="g44"
         transform="translate(132.99199,99.680375)">
        <text
           xml:space="preserve"
           transform="scale(1,-1)"
           style="font-variant:normal;font-weight:normal;font-size:16.5px;font-family:'DejaVu Sans';-inkscape-font-specification:DejaVuSans;writing-mode:lr-tb;fill:#262626;fill-opacity:1;fill-rule:nonzero;stroke:none"
           id="text48"><tspan
             x="0 10.494 16.962"
             y="0"
             id="tspan46">5th</tspan></text>
      </g>
    </g>
    <g
       id="g50">
      <g
         id="g52"
         clip-path="url(#clipPath56)">
        <path
           d="m 232.13833,125.10225 v 266.112"
           style="fill:none;stroke:#ffffff;stroke-width:1.5;stroke-linecap:round;stroke-linejoin:round;stroke-miterlimit:10;stroke-dasharray:none;stroke-opacity:1"
           id="path58" />
      </g>
    </g>
    <g
       id="g60">
      <g
         id="g62"
         transform="translate(213.1774,99.680375)">
        <text
           xml:space="preserve"
           transform="scale(1,-1)"
           style="font-variant:normal;font-weight:normal;font-size:16.5px;font-family:'DejaVu Sans';-inkscape-font-specification:DejaVuSans;writing-mode:lr-tb;fill:#262626;fill-opacity:1;fill-rule:nonzero;stroke:none"
           id="text66"><tspan
             x="0 10.494 20.988001 27.455999"
             y="0"
             id="tspan64">10th</tspan></text>
      </g>
    </g>
    <g
       id="g68">
      <g
         id="g70"
         clip-path="url(#clipPath74)">
        <path
           d="m 317.57374,125.10225 v 266.112"
           style="fill:none;stroke:#ffffff;stroke-width:1.5;stroke-linecap:round;stroke-linejoin:round;stroke-miterlimit:10;stroke-dasharray:none;stroke-opacity:1"
           id="path76" />
      </g>
    </g>
    <g
       id="g78">
      <g
         id="g80"
         transform="translate(298.6128,99.680375)">
        <text
           xml:space="preserve"
           transform="scale(1,-1)"
           style="font-variant:normal;font-weight:normal;font-size:16.5px;font-family:'DejaVu Sans';-inkscape-font-specification:DejaVuSans;writing-mode:lr-tb;fill:#262626;fill-opacity:1;fill-rule:nonzero;stroke:none"
           id="text84"><tspan
             x="0 10.494 20.988001 27.455999"
             y="0"
             id="tspan82">15th</tspan></text>
      </g>
    </g>
    <g
       id="g86">
      <g
         id="g88"
         clip-path="url(#clipPath92)">
        <path
           d="m 403.00915,125.10225 v 266.112"
           style="fill:none;stroke:#ffffff;stroke-width:1.5;stroke-linecap:round;stroke-linejoin:round;stroke-miterlimit:10;stroke-dasharray:none;stroke-opacity:1"
           id="path94" />
      </g>
    </g>
    <g
       id="g96">
      <g
         id="g98"
         transform="translate(384.04821,99.680375)">
        <text
           xml:space="preserve"
           transform="scale(1,-1)"
           style="font-variant:normal;font-weight:normal;font-size:16.5px;font-family:'DejaVu Sans';-inkscape-font-specification:DejaVuSans;writing-mode:lr-tb;fill:#262626;fill-opacity:1;fill-rule:nonzero;stroke:none"
           id="text102"><tspan
             x="0 10.494 20.988001 27.455999"
             y="0"
             id="tspan100">20th</tspan></text>
      </g>
      <g
         id="g104"
         transform="translate(69.01,78.47725)">
        <text
           xml:space="preserve"
           transform="scale(1,-1)"
           style="font-variant:normal;font-weight:normal;font-size:18px;font-family:'DejaVu Sans';-inkscape-font-specification:DejaVuSans;writing-mode:lr-tb;fill:#262626;fill-opacity:1;fill-rule:nonzero;stroke:none"
           id="text108"><tspan
             x="0 10.213375 21.229376 30.607374 35.611374 42.667374 47.671375 58.687374 70.099373 75.823372 86.839378 93.175377 98.899376 112.75938 123.77538 133.67537 145.08737 162.61937 173.68938 185.10138 192.15738 197.88138 212.60538 217.60938 224.66537 236.07738 241.80138 248.85738 260.26938 271.33939 277.06339 289.37537 300.78738 310.16537 324.88937 335.95938"
             y="0"
             id="tspan106">Position of Document with the Answer</tspan></text>
      </g>
    </g>
    <g
       id="g110">
      <g
         id="g112"
         clip-path="url(#clipPath116)">
        <path
           d="M 62.121875,150.16566 H 419.24187"
           style="fill:none;stroke:#ffffff;stroke-width:1.5;stroke-linecap:round;stroke-linejoin:round;stroke-miterlimit:10;stroke-dasharray:none;stroke-opacity:1"
           id="path118" />
      </g>
    </g>
    <g
       id="g120">
      <g
         id="g122"
         transform="translate(28.621875,143.70472)">
        <text
           xml:space="preserve"
           transform="scale(1,-1)"
           style="font-variant:normal;font-weight:normal;font-size:16.5px;font-family:'DejaVu Sans';-inkscape-font-specification:DejaVuSans;writing-mode:lr-tb;fill:#262626;fill-opacity:1;fill-rule:nonzero;stroke:none"
           id="text126"><tspan
             x="0 10.494"
             y="0"
             id="tspan124">55</tspan></text>
      </g>
    </g>
    <g
       id="g128">
      <g
         id="g130"
         clip-path="url(#clipPath134)">
        <path
           d="M 62.121875,205.25122 H 419.24187"
           style="fill:none;stroke:#ffffff;stroke-width:1.5;stroke-linecap:round;stroke-linejoin:round;stroke-miterlimit:10;stroke-dasharray:none;stroke-opacity:1"
           id="path136" />
      </g>
    </g>
    <g
       id="g138">
      <g
         id="g140"
         transform="translate(28.621875,198.79028)">
        <text
           xml:space="preserve"
           transform="scale(1,-1)"
           style="font-variant:normal;font-weight:normal;font-size:16.5px;font-family:'DejaVu Sans';-inkscape-font-specification:DejaVuSans;writing-mode:lr-tb;fill:#262626;fill-opacity:1;fill-rule:nonzero;stroke:none"
           id="text144"><tspan
             x="0 10.494"
             y="0"
             id="tspan142">60</tspan></text>
      </g>
    </g>
    <g
       id="g146">
      <g
         id="g148"
         clip-path="url(#clipPath152)">
        <path
           d="M 62.121875,260.33677 H 419.24187"
           style="fill:none;stroke:#ffffff;stroke-width:1.5;stroke-linecap:round;stroke-linejoin:round;stroke-miterlimit:10;stroke-dasharray:none;stroke-opacity:1"
           id="path154" />
      </g>
    </g>
    <g
       id="g156">
      <g
         id="g158"
         transform="translate(28.621875,253.87584)">
        <text
           xml:space="preserve"
           transform="scale(1,-1)"
           style="font-variant:normal;font-weight:normal;font-size:16.5px;font-family:'DejaVu Sans';-inkscape-font-specification:DejaVuSans;writing-mode:lr-tb;fill:#262626;fill-opacity:1;fill-rule:nonzero;stroke:none"
           id="text162"><tspan
             x="0 10.494"
             y="0"
             id="tspan160">65</tspan></text>
      </g>
    </g>
    <g
       id="g164">
      <g
         id="g166"
         clip-path="url(#clipPath170)">
        <path
           d="M 62.121875,315.42233 H 419.24187"
           style="fill:none;stroke:#ffffff;stroke-width:1.5;stroke-linecap:round;stroke-linejoin:round;stroke-miterlimit:10;stroke-dasharray:none;stroke-opacity:1"
           id="path172" />
      </g>
    </g>
    <g
       id="g174">
      <g
         id="g176"
         transform="translate(28.621875,308.96139)">
        <text
           xml:space="preserve"
           transform="scale(1,-1)"
           style="font-variant:normal;font-weight:normal;font-size:16.5px;font-family:'DejaVu Sans';-inkscape-font-specification:DejaVuSans;writing-mode:lr-tb;fill:#262626;fill-opacity:1;fill-rule:nonzero;stroke:none"
           id="text180"><tspan
             x="0 10.494"
             y="0"
             id="tspan178">70</tspan></text>
      </g>
    </g>
    <g
       id="g182">
      <g
         id="g184"
         clip-path="url(#clipPath188)">
        <path
           d="M 62.121875,370.50789 H 419.24187"
           style="fill:none;stroke:#ffffff;stroke-width:1.5;stroke-linecap:round;stroke-linejoin:round;stroke-miterlimit:10;stroke-dasharray:none;stroke-opacity:1"
           id="path190" />
      </g>
    </g>
    <g
       id="g192">
      <g
         id="g194"
         transform="translate(28.621875,364.04695)">
        <text
           xml:space="preserve"
           transform="scale(1,-1)"
           style="font-variant:normal;font-weight:normal;font-size:16.5px;font-family:'DejaVu Sans';-inkscape-font-specification:DejaVuSans;writing-mode:lr-tb;fill:#262626;fill-opacity:1;fill-rule:nonzero;stroke:none"
           id="text198"><tspan
             x="0 10.494"
             y="0"
             id="tspan196">75</tspan></text>
      </g>
      <g
         id="g200"
         transform="rotate(90,-98.115844,118.98772)">
        <text
           xml:space="preserve"
           transform="scale(1,-1)"
           style="font-variant:normal;font-weight:normal;font-size:18px;font-family:'DejaVu Sans';-inkscape-font-specification:DejaVuSans;writing-mode:lr-tb;fill:#262626;fill-opacity:1;fill-rule:nonzero;stroke:none"
           id="text204"><tspan
             x="0 11.9995 21.8995 31.7995 43.211498 50.609501 61.643501 71.543503"
             y="0"
             id="tspan202">Accuracy</tspan></text>
      </g>
    </g>
    <g
       id="g206">
      <g
         id="g208"
         clip-path="url(#clipPath212)">
        <path
           d="m 78.354602,379.11825 17.087082,-103.32432 17.087076,-7.46923 17.08709,-55.1893 17.08708,-38.59101 17.08708,-8.29914 17.08708,-14.10854 17.08708,-8.29915 17.08708,4.14958 17.08708,-10.78889 17.08709,4.97948 17.08708,2.07479 17.08708,5.39444 17.08708,2.48975 17.08708,2.07478 17.08708,-3.31965 17.08708,18.25811 17.08709,14.10854 17.08708,15.76837 17.08708,41.08075"
           style="fill:none;stroke:#8172b3;stroke-width:4;stroke-linecap:round;stroke-linejoin:round;stroke-miterlimit:10;stroke-dasharray:none;stroke-opacity:0.8"
           id="path214" />
        <g
           id="g216"
           transform="translate(78.354602,379.11825)">
          <g
             id="g218">
            <g
               id="g220"
               clip-path="url(#clipPath224)">
              <path
                 d="m 0,-6 c 1.591219,0 3.117479,0.632198 4.242641,1.757359 C 5.367802,-3.117479 6,-1.591219 6,0 6,1.591219 5.367802,3.117479 4.242641,4.242641 3.117479,5.367802 1.591219,6 0,6 -1.591219,6 -3.117479,5.367802 -4.242641,4.242641 -5.367802,3.117479 -6,1.591219 -6,0 -6,-1.591219 -5.367802,-3.117479 -4.242641,-4.242641 -3.117479,-5.367802 -1.591219,-6 0,-6 Z"
                 style="fill:#8172b3;fill-opacity:0.8;fill-rule:nonzero;stroke:#8172b3;stroke-width:1;stroke-linecap:butt;stroke-linejoin:round;stroke-miterlimit:10;stroke-dasharray:none;stroke-opacity:0.8"
                 id="path226" />
            </g>
          </g>
          <g
             id="g228"
             transform="translate(17.087081,-103.32432)">
            <g
               id="g230">
              <g
                 id="g232"
                 clip-path="url(#clipPath236)">
                <path
                   d="m 0,-6 c 1.591219,0 3.117479,0.632198 4.242641,1.757359 C 5.367802,-3.117479 6,-1.591219 6,0 6,1.591219 5.367802,3.117479 4.242641,4.242641 3.117479,5.367802 1.591219,6 0,6 -1.591219,6 -3.117479,5.367802 -4.242641,4.242641 -5.367802,3.117479 -6,1.591219 -6,0 -6,-1.591219 -5.367802,-3.117479 -4.242641,-4.242641 -3.117479,-5.367802 -1.591219,-6 0,-6 Z"
                   style="fill:#8172b3;fill-opacity:0.8;fill-rule:nonzero;stroke:#8172b3;stroke-width:1;stroke-linecap:butt;stroke-linejoin:round;stroke-miterlimit:10;stroke-dasharray:none;stroke-opacity:0.8"
                   id="path238" />
              </g>
            </g>
            <g
               id="g240"
               transform="translate(17.087081,-7.4692281)">
              <g
                 id="g242">
                <g
                   id="g244"
                   clip-path="url(#clipPath248)">
                  <path
                     d="m 0,-6 c 1.591219,0 3.117479,0.632198 4.242641,1.757359 C 5.367802,-3.117479 6,-1.591219 6,0 6,1.591219 5.367802,3.117479 4.242641,4.242641 3.117479,5.367802 1.591219,6 0,6 -1.591219,6 -3.117479,5.367802 -4.242641,4.242641 -5.367802,3.117479 -6,1.591219 -6,0 -6,-1.591219 -5.367802,-3.117479 -4.242641,-4.242641 -3.117479,-5.367802 -1.591219,-6 0,-6 Z"
                     style="fill:#8172b3;fill-opacity:0.8;fill-rule:nonzero;stroke:#8172b3;stroke-width:1;stroke-linecap:butt;stroke-linejoin:round;stroke-miterlimit:10;stroke-dasharray:none;stroke-opacity:0.8"
                     id="path250" />
                </g>
              </g>
              <g
                 id="g252"
                 transform="translate(17.087081,-55.189297)">
                <g
                   id="g254">
                  <g
                     id="g256"
                     clip-path="url(#clipPath260)">
                    <path
                       d="m 0,-6 c 1.591219,0 3.117479,0.632198 4.242641,1.757359 C 5.367802,-3.117479 6,-1.591219 6,0 6,1.591219 5.367802,3.117479 4.242641,4.242641 3.117479,5.367802 1.591219,6 0,6 -1.591219,6 -3.117479,5.367802 -4.242641,4.242641 -5.367802,3.117479 -6,1.591219 -6,0 -6,-1.591219 -5.367802,-3.117479 -4.242641,-4.242641 -3.117479,-5.367802 -1.591219,-6 0,-6 Z"
                       style="fill:#8172b3;fill-opacity:0.8;fill-rule:nonzero;stroke:#8172b3;stroke-width:1;stroke-linecap:butt;stroke-linejoin:round;stroke-miterlimit:10;stroke-dasharray:none;stroke-opacity:0.8"
                       id="path262" />
                  </g>
                </g>
                <g
                   id="g264"
                   transform="translate(17.087081,-38.591012)">
                  <g
                     id="g266">
                    <g
                       id="g268"
                       clip-path="url(#clipPath272)">
                      <path
                         d="m 0,-6 c 1.591219,0 3.117479,0.632198 4.242641,1.757359 C 5.367802,-3.117479 6,-1.591219 6,0 6,1.591219 5.367802,3.117479 4.242641,4.242641 3.117479,5.367802 1.591219,6 0,6 -1.591219,6 -3.117479,5.367802 -4.242641,4.242641 -5.367802,3.117479 -6,1.591219 -6,0 -6,-1.591219 -5.367802,-3.117479 -4.242641,-4.242641 -3.117479,-5.367802 -1.591219,-6 0,-6 Z"
                         style="fill:#8172b3;fill-opacity:0.8;fill-rule:nonzero;stroke:#8172b3;stroke-width:1;stroke-linecap:butt;stroke-linejoin:round;stroke-miterlimit:10;stroke-dasharray:none;stroke-opacity:0.8"
                         id="path274" />
                    </g>
                  </g>
                  <g
                     id="g276"
                     transform="translate(17.087081,-8.2991424)">
                    <g
                       id="g278">
                      <g
                         id="g280"
                         clip-path="url(#clipPath284)">
                        <path
                           d="m 0,-6 c 1.591219,0 3.117479,0.632198 4.242641,1.757359 C 5.367802,-3.117479 6,-1.591219 6,0 6,1.591219 5.367802,3.117479 4.242641,4.242641 3.117479,5.367802 1.591219,6 0,6 -1.591219,6 -3.117479,5.367802 -4.242641,4.242641 -5.367802,3.117479 -6,1.591219 -6,0 -6,-1.591219 -5.367802,-3.117479 -4.242641,-4.242641 -3.117479,-5.367802 -1.591219,-6 0,-6 Z"
                           style="fill:#8172b3;fill-opacity:0.8;fill-rule:nonzero;stroke:#8172b3;stroke-width:1;stroke-linecap:butt;stroke-linejoin:round;stroke-miterlimit:10;stroke-dasharray:none;stroke-opacity:0.8"
                           id="path286" />
                      </g>
                    </g>
                    <g
                       id="g288"
                       transform="translate(17.087081,-14.108542)">
                      <g
                         id="g290">
                        <g
                           id="g292"
                           clip-path="url(#clipPath296)">
                          <path
                             d="m 0,-6 c 1.591219,0 3.117479,0.632198 4.242641,1.757359 C 5.367802,-3.117479 6,-1.591219 6,0 6,1.591219 5.367802,3.117479 4.242641,4.242641 3.117479,5.367802 1.591219,6 0,6 -1.591219,6 -3.117479,5.367802 -4.242641,4.242641 -5.367802,3.117479 -6,1.591219 -6,0 -6,-1.591219 -5.367802,-3.117479 -4.242641,-4.242641 -3.117479,-5.367802 -1.591219,-6 0,-6 Z"
                             style="fill:#8172b3;fill-opacity:0.8;fill-rule:nonzero;stroke:#8172b3;stroke-width:1;stroke-linecap:butt;stroke-linejoin:round;stroke-miterlimit:10;stroke-dasharray:none;stroke-opacity:0.8"
                             id="path298" />
                        </g>
                      </g>
                      <g
                         id="g300"
                         transform="translate(17.087081,-8.2991424)">
                        <g
                           id="g302">
                          <g
                             id="g304"
                             clip-path="url(#clipPath308)">
                            <path
                               d="m 0,-6 c 1.591219,0 3.117479,0.632198 4.242641,1.757359 C 5.367802,-3.117479 6,-1.591219 6,0 6,1.591219 5.367802,3.117479 4.242641,4.242641 3.117479,5.367802 1.591219,6 0,6 -1.591219,6 -3.117479,5.367802 -4.242641,4.242641 -5.367802,3.117479 -6,1.591219 -6,0 -6,-1.591219 -5.367802,-3.117479 -4.242641,-4.242641 -3.117479,-5.367802 -1.591219,-6 0,-6 Z"
                               style="fill:#8172b3;fill-opacity:0.8;fill-rule:nonzero;stroke:#8172b3;stroke-width:1;stroke-linecap:butt;stroke-linejoin:round;stroke-miterlimit:10;stroke-dasharray:none;stroke-opacity:0.8"
                               id="path310" />
                          </g>
                        </g>
                        <g
                           id="g312"
                           transform="translate(17.087081,4.1495712)">
                          <g
                             id="g314">
                            <g
                               id="g316"
                               clip-path="url(#clipPath320)">
                              <path
                                 d="m 0,-6 c 1.591219,0 3.117479,0.632198 4.242641,1.757359 C 5.367802,-3.117479 6,-1.591219 6,0 6,1.591219 5.367802,3.117479 4.242641,4.242641 3.117479,5.367802 1.591219,6 0,6 -1.591219,6 -3.117479,5.367802 -4.242641,4.242641 -5.367802,3.117479 -6,1.591219 -6,0 -6,-1.591219 -5.367802,-3.117479 -4.242641,-4.242641 -3.117479,-5.367802 -1.591219,-6 0,-6 Z"
                                 style="fill:#8172b3;fill-opacity:0.8;fill-rule:nonzero;stroke:#8172b3;stroke-width:1;stroke-linecap:butt;stroke-linejoin:round;stroke-miterlimit:10;stroke-dasharray:none;stroke-opacity:0.8"
                                 id="path322" />
                            </g>
                          </g>
                          <g
                             id="g324"
                             transform="translate(17.087081,-10.788885)">
                            <g
                               id="g326">
                              <g
                                 id="g328"
                                 clip-path="url(#clipPath332)">
                                <path
                                   d="m 0,-6 c 1.591219,0 3.117479,0.632198 4.242641,1.757359 C 5.367802,-3.117479 6,-1.591219 6,0 6,1.591219 5.367802,3.117479 4.242641,4.242641 3.117479,5.367802 1.591219,6 0,6 -1.591219,6 -3.117479,5.367802 -4.242641,4.242641 -5.367802,3.117479 -6,1.591219 -6,0 -6,-1.591219 -5.367802,-3.117479 -4.242641,-4.242641 -3.117479,-5.367802 -1.591219,-6 0,-6 Z"
                                   style="fill:#8172b3;fill-opacity:0.8;fill-rule:nonzero;stroke:#8172b3;stroke-width:1;stroke-linecap:butt;stroke-linejoin:round;stroke-miterlimit:10;stroke-dasharray:none;stroke-opacity:0.8"
                                   id="path334" />
                              </g>
                            </g>
                            <g
                               id="g336"
                               transform="translate(17.087081,4.9794854)">
                              <g
                                 id="g338">
                                <g
                                   id="g340"
                                   clip-path="url(#clipPath344)">
                                <path
                                   d="m 0,-6 c 1.591219,0 3.117479,0.632198 4.242641,1.757359 C 5.367802,-3.117479 6,-1.591219 6,0 6,1.591219 5.367802,3.117479 4.242641,4.242641 3.117479,5.367802 1.591219,6 0,6 -1.591219,6 -3.117479,5.367802 -4.242641,4.242641 -5.367802,3.117479 -6,1.591219 -6,0 -6,-1.591219 -5.367802,-3.117479 -4.242641,-4.242641 -3.117479,-5.367802 -1.591219,-6 0,-6 Z"
                                   style="fill:#8172b3;fill-opacity:0.8;fill-rule:nonzero;stroke:#8172b3;stroke-width:1;stroke-linecap:butt;stroke-linejoin:round;stroke-miterlimit:10;stroke-dasharray:none;stroke-opacity:0.8"
                                   id="path346" />
                                </g>
                              </g>
                              <g
                                 id="g348"
                                 transform="translate(17.087081,2.0747856)">
                                <g
                                   id="g350">
                                <g
                                   id="g352"
                                   clip-path="url(#clipPath356)">
                                <path
                                   d="m 0,-6 c 1.591219,0 3.117479,0.632198 4.242641,1.757359 C 5.367802,-3.117479 6,-1.591219 6,0 6,1.591219 5.367802,3.117479 4.242641,4.242641 3.117479,5.367802 1.591219,6 0,6 -1.591219,6 -3.117479,5.367802 -4.242641,4.242641 -5.367802,3.117479 -6,1.591219 -6,0 -6,-1.591219 -5.367802,-3.117479 -4.242641,-4.242641 -3.117479,-5.367802 -1.591219,-6 0,-6 Z"
                                   style="fill:#8172b3;fill-opacity:0.8;fill-rule:nonzero;stroke:#8172b3;stroke-width:1;stroke-linecap:butt;stroke-linejoin:round;stroke-miterlimit:10;stroke-dasharray:none;stroke-opacity:0.8"
                                   id="path358" />
                                </g>
                                </g>
                                <g
                                   id="g360"
                                   transform="translate(17.087081,5.3944425)">
                                <g
                                   id="g362">
                                <g
                                   id="g364"
                                   clip-path="url(#clipPath368)">
                                <path
                                   d="m 0,-6 c 1.591219,0 3.117479,0.632198 4.242641,1.757359 C 5.367802,-3.117479 6,-1.591219 6,0 6,1.591219 5.367802,3.117479 4.242641,4.242641 3.117479,5.367802 1.591219,6 0,6 -1.591219,6 -3.117479,5.367802 -4.242641,4.242641 -5.367802,3.117479 -6,1.591219 -6,0 -6,-1.591219 -5.367802,-3.117479 -4.242641,-4.242641 -3.117479,-5.367802 -1.591219,-6 0,-6 Z"
                                   style="fill:#8172b3;fill-opacity:0.8;fill-rule:nonzero;stroke:#8172b3;stroke-width:1;stroke-linecap:butt;stroke-linejoin:round;stroke-miterlimit:10;stroke-dasharray:none;stroke-opacity:0.8"
                                   id="path370" />
                                </g>
                                </g>
                                <g
                                   id="g372"
                                   transform="translate(17.087081,2.4897427)">
                                <g
                                   id="g374">
                                <g
                                   id="g376"
                                   clip-path="url(#clipPath380)">
                                <path
                                   d="m 0,-6 c 1.591219,0 3.117479,0.632198 4.242641,1.757359 C 5.367802,-3.117479 6,-1.591219 6,0 6,1.591219 5.367802,3.117479 4.242641,4.242641 3.117479,5.367802 1.591219,6 0,6 -1.591219,6 -3.117479,5.367802 -4.242641,4.242641 -5.367802,3.117479 -6,1.591219 -6,0 -6,-1.591219 -5.367802,-3.117479 -4.242641,-4.242641 -3.117479,-5.367802 -1.591219,-6 0,-6 Z"
                                   style="fill:#8172b3;fill-opacity:0.8;fill-rule:nonzero;stroke:#8172b3;stroke-width:1;stroke-linecap:butt;stroke-linejoin:round;stroke-miterlimit:10;stroke-dasharray:none;stroke-opacity:0.8"
                                   id="path382" />
                                </g>
                                </g>
                                <g
                                   id="g384"
                                   transform="translate(17.087081,2.0747856)">
                                <g
                                   id="g386">
                                <g
                                   id="g388"
                                   clip-path="url(#clipPath392)">
                                <path
                                   d="m 0,-6 c 1.591219,0 3.117479,0.632198 4.242641,1.757359 C 5.367802,-3.117479 6,-1.591219 6,0 6,1.591219 5.367802,3.117479 4.242641,4.242641 3.117479,5.367802 1.591219,6 0,6 -1.591219,6 -3.117479,5.367802 -4.242641,4.242641 -5.367802,3.117479 -6,1.591219 -6,0 -6,-1.591219 -5.367802,-3.117479 -4.242641,-4.242641 -3.117479,-5.367802 -1.591219,-6 0,-6 Z"
                                   style="fill:#8172b3;fill-opacity:0.8;fill-rule:nonzero;stroke:#8172b3;stroke-width:1;stroke-linecap:butt;stroke-linejoin:round;stroke-miterlimit:10;stroke-dasharray:none;stroke-opacity:0.8"
                                   id="path394" />
                                </g>
                                </g>
                                <g
                                   id="g396"
                                   transform="translate(17.087081,-3.3196569)">
                                <g
                                   id="g398">
                                <g
                                   id="g400"
                                   clip-path="url(#clipPath404)">
                                <path
                                   d="m 0,-6 c 1.591219,0 3.117479,0.632198 4.242641,1.757359 C 5.367802,-3.117479 6,-1.591219 6,0 6,1.591219 5.367802,3.117479 4.242641,4.242641 3.117479,5.367802 1.591219,6 0,6 -1.591219,6 -3.117479,5.367802 -4.242641,4.242641 -5.367802,3.117479 -6,1.591219 -6,0 -6,-1.591219 -5.367802,-3.117479 -4.242641,-4.242641 -3.117479,-5.367802 -1.591219,-6 0,-6 Z"
                                   style="fill:#8172b3;fill-opacity:0.8;fill-rule:nonzero;stroke:#8172b3;stroke-width:1;stroke-linecap:butt;stroke-linejoin:round;stroke-miterlimit:10;stroke-dasharray:none;stroke-opacity:0.8"
                                   id="path406" />
                                </g>
                                </g>
                                <g
                                   id="g408"
                                   transform="translate(17.087081,18.258113)">
                                <g
                                   id="g410">
                                <g
                                   id="g412"
                                   clip-path="url(#clipPath416)">
                                <path
                                   d="m 0,-6 c 1.591219,0 3.117479,0.632198 4.242641,1.757359 C 5.367802,-3.117479 6,-1.591219 6,0 6,1.591219 5.367802,3.117479 4.242641,4.242641 3.117479,5.367802 1.591219,6 0,6 -1.591219,6 -3.117479,5.367802 -4.242641,4.242641 -5.367802,3.117479 -6,1.591219 -6,0 -6,-1.591219 -5.367802,-3.117479 -4.242641,-4.242641 -3.117479,-5.367802 -1.591219,-6 0,-6 Z"
                                   style="fill:#8172b3;fill-opacity:0.8;fill-rule:nonzero;stroke:#8172b3;stroke-width:1;stroke-linecap:butt;stroke-linejoin:round;stroke-miterlimit:10;stroke-dasharray:none;stroke-opacity:0.8"
                                   id="path418" />
                                </g>
                                </g>
                                <g
                                   id="g420"
                                   transform="translate(17.087081,14.108542)">
                                <g
                                   id="g422">
                                <g
                                   id="g424"
                                   clip-path="url(#clipPath428)">
                                <path
                                   d="m 0,-6 c 1.591219,0 3.117479,0.632198 4.242641,1.757359 C 5.367802,-3.117479 6,-1.591219 6,0 6,1.591219 5.367802,3.117479 4.242641,4.242641 3.117479,5.367802 1.591219,6 0,6 -1.591219,6 -3.117479,5.367802 -4.242641,4.242641 -5.367802,3.117479 -6,1.591219 -6,0 -6,-1.591219 -5.367802,-3.117479 -4.242641,-4.242641 -3.117479,-5.367802 -1.591219,-6 0,-6 Z"
                                   style="fill:#8172b3;fill-opacity:0.8;fill-rule:nonzero;stroke:#8172b3;stroke-width:1;stroke-linecap:butt;stroke-linejoin:round;stroke-miterlimit:10;stroke-dasharray:none;stroke-opacity:0.8"
                                   id="path430" />
                                </g>
                                </g>
                                <g
                                   id="g432"
                                   transform="translate(17.087081,15.76837)">
                                <g
                                   id="g434">
                                <g
                                   id="g436"
                                   clip-path="url(#clipPath440)">
                                <path
                                   d="m 0,-6 c 1.591219,0 3.117479,0.632198 4.242641,1.757359 C 5.367802,-3.117479 6,-1.591219 6,0 6,1.591219 5.367802,3.117479 4.242641,4.242641 3.117479,5.367802 1.591219,6 0,6 -1.591219,6 -3.117479,5.367802 -4.242641,4.242641 -5.367802,3.117479 -6,1.591219 -6,0 -6,-1.591219 -5.367802,-3.117479 -4.242641,-4.242641 -3.117479,-5.367802 -1.591219,-6 0,-6 Z"
                                   style="fill:#8172b3;fill-opacity:0.8;fill-rule:nonzero;stroke:#8172b3;stroke-width:1;stroke-linecap:butt;stroke-linejoin:round;stroke-miterlimit:10;stroke-dasharray:none;stroke-opacity:0.8"
                                   id="path442" />
                                </g>
                                </g>
                                <g
                                   id="g444"
                                   transform="translate(17.087081,41.080755)">
                                <g
                                   id="g446">
                                <g
                                   id="g448"
                                   clip-path="url(#clipPath452)">
                                <path
                                   d="m 0,-6 c 1.591219,0 3.117479,0.632198 4.242641,1.757359 C 5.367802,-3.117479 6,-1.591219 6,0 6,1.591219 5.367802,3.117479 4.242641,4.242641 3.117479,5.367802 1.591219,6 0,6 -1.591219,6 -3.117479,5.367802 -4.242641,4.242641 -5.367802,3.117479 -6,1.591219 -6,0 -6,-1.591219 -5.367802,-3.117479 -4.242641,-4.242641 -3.117479,-5.367802 -1.591219,-6 0,-6 Z"
                                   style="fill:#8172b3;fill-opacity:0.8;fill-rule:nonzero;stroke:#8172b3;stroke-width:1;stroke-linecap:butt;stroke-linejoin:round;stroke-miterlimit:10;stroke-dasharray:none;stroke-opacity:0.8"
                                   id="path454" />
                                </g>
                                </g>
                                </g>
                                </g>
                                </g>
                                </g>
                                </g>
                                </g>
                                </g>
                                </g>
                              </g>
                            </g>
                          </g>
                        </g>
                      </g>
                    </g>
                  </g>
                </g>
              </g>
            </g>
          </g>
        </g>
      </g>
    </g>
    <g
       id="g456">
      <g
         id="g458"
         clip-path="url(#clipPath462)">
        <path
           d="M 62.121875,162.28448 H 419.24187"
           style="fill:none;stroke:#c44e52;stroke-width:3;stroke-linecap:butt;stroke-linejoin:round;stroke-miterlimit:10;stroke-dasharray:11.1, 4.8;stroke-dashoffset:0;stroke-opacity:1"
           id="path464" />
      </g>
    </g>
    <g
       id="g466">
      <path
         d="m 62.121875,125.10225 v 266.112"
         style="fill:none;stroke:#ffffff;stroke-width:1.875;stroke-linecap:square;stroke-linejoin:miter;stroke-miterlimit:10;stroke-dasharray:none;stroke-opacity:1"
         id="path468" />
      <path
         d="m 419.24187,125.10225 v 266.112"
         style="fill:none;stroke:#ffffff;stroke-width:1.875;stroke-linecap:square;stroke-linejoin:miter;stroke-miterlimit:10;stroke-dasharray:none;stroke-opacity:1"
         id="path470" />
      <path
         d="M 62.121875,125.10225 H 419.24187"
         style="fill:none;stroke:#ffffff;stroke-width:1.875;stroke-linecap:square;stroke-linejoin:miter;stroke-miterlimit:10;stroke-dasharray:none;stroke-opacity:1"
         id="path472" />
      <path
         d="M 62.121875,391.21425 H 419.24187"
         style="fill:none;stroke:#ffffff;stroke-width:1.875;stroke-linecap:square;stroke-linejoin:miter;stroke-miterlimit:10;stroke-dasharray:none;stroke-opacity:1"
         id="path474" />
      <g
         id="g476"
         transform="translate(43.220938,397.21425)">
        <text
           xml:space="preserve"
           transform="scale(1,-1)"
           style="font-variant:normal;font-weight:normal;font-size:18px;font-family:'DejaVu Sans';-inkscape-font-specification:DejaVuSans;writing-mode:lr-tb;fill:#262626;fill-opacity:1;fill-rule:nonzero;stroke:none"
           id="text480"><tspan
             x="0 11.448 22.896 28.620001 36.571125 47.587124 54.643124 65.677124 70.681122 76.405128 88.118248 99.188248 106.24425 113.64225 118.64625 129.71625 140.37225 151.44225 162.87225 168.59625 182.45625 193.47224 203.37225 214.78426 232.31625 243.38625 254.79825 261.85425 271.23224 276.95624 283.97626 299.06024 310.50824 322.31625 328.04025 335.09625 346.11224 355.89362 366.96362 378.37561 387.75363"
             y="0"
             id="tspan478">20 Total Retrieved Documents (~4K tokens)</tspan></text>
      </g>
      <path
         d="M 70.873437,7.2 H 398.97031 c 2.2,0 3.3,1.1 3.3,3.3 v 47.75625 c 0,2.2 -1.1,3.3 -3.3,3.3 H 70.873437 c -2.2,0 -3.3,-1.1 -3.3,-3.3 V 10.5 c 0,-2.2 1.1,-3.3 3.3,-3.3 z"
         style="fill:#eaeaf2;fill-opacity:0.8;fill-rule:nonzero;stroke:#cccccc;stroke-width:1.5;stroke-linecap:butt;stroke-linejoin:miter;stroke-miterlimit:10;stroke-dasharray:none;stroke-opacity:0.8"
         id="path482" />
      <path
         d="m 74.173437,47.809375 h 16.5 16.500003"
         style="fill:none;stroke:#8172b3;stroke-width:4;stroke-linecap:round;stroke-linejoin:round;stroke-miterlimit:10;stroke-dasharray:none;stroke-opacity:0.8"
         id="path484" />
      <path
         d="m 90.673437,41.809375 c 1.591219,0 3.11748,0.632198 4.242641,1.757359 1.125162,1.125162 1.757359,2.651422 1.757359,4.242641 0,1.591219 -0.632197,3.117479 -1.757359,4.242641 -1.125161,1.125161 -2.651422,1.757359 -4.242641,1.757359 -1.591218,0 -3.117479,-0.632198 -4.24264,-1.757359 -1.125162,-1.125162 -1.75736,-2.651422 -1.75736,-4.242641 0,-1.591219 0.632198,-3.117479 1.75736,-4.242641 1.125161,-1.125161 2.651422,-1.757359 4.24264,-1.757359 z"
         style="fill:#8172b3;fill-opacity:0.8;fill-rule:nonzero;stroke:#8172b3;stroke-width:1;stroke-linecap:butt;stroke-linejoin:round;stroke-miterlimit:10;stroke-dasharray:none;stroke-opacity:0.8"
         id="path486" />
      <g
         id="g488"
         transform="translate(120.37344,42.034375)">
        <text
           xml:space="preserve"
           transform="scale(1,-1)"
           style="font-variant:normal;font-weight:normal;font-size:16.5px;font-family:'DejaVu Sans';-inkscape-font-specification:DejaVuSans;writing-mode:lr-tb;fill:#262626;fill-opacity:1;fill-rule:nonzero;stroke:none"
           id="text492"><tspan
             x="0 10.4775 20.955 27.423 33.379501 43.873501 49.120499 59.614498 65.570999 72.039001 82.5 89.281502 99.759003 110.15388 116.11037 126.60438 137.09837 147.59238"
             y="0"
             id="tspan490">gpt-3.5-turbo-0613</tspan></text>
      </g>
      <path
         d="m 74.173437,23.10625 h 16.5 16.500003"
         style="fill:none;stroke:#c44e52;stroke-width:3;stroke-linecap:butt;stroke-linejoin:round;stroke-miterlimit:10;stroke-dasharray:11.1, 4.8;stroke-dashoffset:0;stroke-opacity:1"
         id="path494" />
      <g
         id="g496"
         transform="translate(120.37344,17.33125)">
        <text
           xml:space="preserve"
           transform="scale(1,-1)"
           style="font-variant:normal;font-weight:normal;font-size:16.5px;font-family:'DejaVu Sans';-inkscape-font-specification:DejaVuSans;writing-mode:lr-tb;fill:#262626;fill-opacity:1;fill-rule:nonzero;stroke:none"
           id="text500"><tspan
             x="0 10.4775 20.955 27.423 33.379501 43.873501 49.120499 59.614498 65.570999 72.039001 82.5 89.281502 99.759003 110.15388 116.11037 126.60438 137.09837 147.59238 158.08638 163.33337 169.76837 178.84337 183.43037 193.52838 202.12488 212.27237 222.74988 228.70638 239.18387 249.28188 259.37988 268.93338"
             y="0"
             id="tspan498">gpt-3.5-turbo-0613 (closed-book)</tspan></text>
      </g>
    </g>
  </g>
</svg>
